<svg xmlns="http://www.w3.org/2000/svg" xmlns:xlink="http://www.w3.org/1999/xlink" version="1.1" width="256" height="256" viewBox="0 0 256 256" xml:space="preserve">
<desc>Created with Fabric.js 1.7.22</desc>
<defs>
</defs>
<g transform="translate(128 128) scale(0.72 0.72)" style="">
	<g style="stroke: none; stroke-width: 0; stroke-dasharray: none; stroke-linecap: butt; stroke-linejoin: miter; stroke-miterlimit: 10; fill: none; fill-rule: nonzero; opacity: 1;" transform="translate(-175.05 -175.05) scale(3.89 3.89)" >
	<path d="M 35.075 80.071 c 3.173 0 6.346 -1.207 8.761 -3.623 c 4.831 -4.831 4.831 -12.69 0 -17.521 l -1.533 -1.534 H 77.61 c 6.832 0 12.39 -5.559 12.39 -12.39 c 0 -6.832 -5.558 -12.39 -12.39 -12.39 H 42.303 l 1.547 -1.547 c 2.343 -2.343 3.632 -5.458 3.629 -8.772 c -0.003 -3.314 -1.297 -6.427 -3.645 -8.767 h -0.001 c -4.83 -4.813 -12.684 -4.806 -17.506 0.017 L 3.629 36.242 C 1.288 38.582 0 41.693 0 45.003 s 1.288 6.421 3.629 8.761 l 22.686 22.685 C 28.729 78.863 31.902 80.071 35.075 80.071 z M 77.61 36.612 c 4.626 0 8.39 3.764 8.39 8.39 s -3.764 8.39 -8.39 8.39 H 37.475 c -0.809 0 -1.538 0.487 -1.848 1.234 s -0.139 1.607 0.434 2.18 l 4.947 4.948 c 3.271 3.271 3.271 8.594 0 11.865 c -3.271 3.271 -8.594 3.271 -11.865 0 L 6.457 50.936 c -3.271 -3.271 -3.271 -8.594 0 -11.866 l 22.698 -22.699 c 3.265 -3.264 8.583 -3.27 11.855 -0.011 c 1.589 1.584 2.466 3.692 2.468 5.936 s -0.87 4.354 -2.457 5.94 l -4.961 4.961 c -0.572 0.572 -0.743 1.432 -0.434 2.18 c 0.31 0.747 1.039 1.234 1.848 1.234 H 77.61 z" style="stroke: none; stroke-width: 1; stroke-dasharray: none; stroke-linecap: butt; stroke-linejoin: miter; stroke-miterlimit: 10; fill: rgb(248,218,160); fill-rule: nonzero; opacity: 1;" transform=" matrix(1 0 0 1 0 0) " stroke-linecap="round" />
</g>
</g>
</svg>